<svg width="169" height="103" viewBox="0 0 169 103" fill="none" xmlns="http://www.w3.org/2000/svg">
<g filter="url(#filter0_d_301_460)">
<rect x="4" y="63.0225" width="160" height="34" transform="rotate(-23.1968 4 63.0225)" fill="#EB8FB3" fill-opacity="0.8"/>
<g filter="url(#filter1_d_301_460)">
<path d="M36.8769 64.641C35.5206 62.2983 33.0422 61.679 30.5668 62.7398C27.7414 63.9506 26.4394 66.8699 27.9389 70.3689C29.4339 73.8576 32.4136 74.9544 35.2755 73.7279C38.0174 72.553 38.8918 70.0209 38.2935 67.9468L36.0016 68.9166C36.2776 70.1521 35.6613 71.1951 34.4549 71.712C32.8308 72.4081 31.2118 71.6739 30.2316 69.3864C29.2782 67.1617 29.8206 65.4271 31.4762 64.7176C32.7139 64.1872 33.9135 64.52 34.5894 65.6212L36.8769 64.641ZM49.4554 61.1484C47.956 57.6493 44.9285 56.5853 42.0927 57.8006C39.2412 59.0225 37.9392 61.9418 39.4387 65.4409C40.9315 68.9243 43.95 70.0106 46.8015 68.7887C49.6373 67.5734 50.9549 64.6474 49.4554 61.1484ZM47.1628 62.1308C48.1341 64.3974 47.5842 66.0857 45.9443 66.7885C44.2992 67.4934 42.7027 66.7249 41.7314 64.4584C40.7601 62.1918 41.3048 60.5057 42.9498 59.8008C44.5897 59.098 46.1915 59.8643 47.1628 62.1308ZM49.28 54.8936L53.8635 65.5893L56.0569 64.6493L53.0625 57.6616L53.1512 57.6236L58.8912 63.3729L60.3849 62.7328L60.1919 54.6373L60.2807 54.5993L63.2639 61.5608L65.4574 60.6209L60.8739 49.9252L58.0851 51.1203L58.2192 59.5687L58.0938 59.6224L52.0688 53.6985L49.28 54.8936ZM65.4396 47.9687L63.1783 48.9377L67.7617 59.6334L70.023 58.6643L65.4396 47.9687ZM76.6874 43.1486L74.4365 44.1132L77.3191 50.8398L77.2251 50.88L69.7258 46.1319L67.7413 46.9823L72.3247 57.678L74.5861 56.7089L71.7013 49.9771L71.7796 49.9436L79.3177 54.6813L81.2709 53.8443L76.6874 43.1486ZM87.5707 42.577L89.8685 41.5922C88.6697 39.6024 86.1674 38.913 83.7494 39.9492C80.9241 41.16 79.6191 44.13 81.1051 47.5977C82.5554 50.9819 85.4918 52.2085 88.5052 50.9172C91.2052 49.7601 92.4005 47.2265 91.1942 44.4116L90.6168 43.0642L86.1411 44.9822L86.8707 46.6847L89.1686 45.7C89.7057 47.0399 89.1626 48.2679 87.6585 48.9125C85.9612 49.6398 84.3467 48.8296 83.3889 46.5944C82.4355 44.3696 83.0085 42.6343 84.6431 41.9338C85.8078 41.4347 86.8537 41.6973 87.5707 42.577ZM101.591 36.1174L103.759 35.1886C102.91 33.2958 100.78 32.6511 98.3983 33.6717C96.0534 34.6765 94.8902 36.708 95.7332 38.6463C96.4039 40.2257 97.9034 40.6525 99.8962 40.3116L101.186 40.105C102.472 39.888 103.262 39.9447 103.576 40.6632C103.907 41.4488 103.394 42.2993 102.245 42.7916C101.07 43.2952 99.9908 43.1146 99.4589 42.0753L97.2707 43.013C98.3196 45.302 100.488 45.7885 103.083 44.6762C105.694 43.5572 106.695 41.651 105.861 39.6904C105.093 37.9117 103.345 37.5416 101.307 37.9206L100.248 38.1026C99.2263 38.2868 98.3004 38.2756 97.9871 37.5012C97.6917 36.8118 98.0856 36.0434 99.1928 35.5689C100.274 35.1057 101.147 35.3123 101.591 36.1174ZM116.669 32.3449C115.17 28.8458 112.142 27.7818 109.307 28.9971C106.455 30.219 105.153 33.1383 106.653 36.6374C108.145 40.1208 111.164 41.2071 114.015 39.9852C116.851 38.7699 118.169 35.8439 116.669 32.3449ZM114.377 33.3273C115.348 35.5939 114.798 37.2822 113.158 37.985C111.513 38.6899 109.917 37.9214 108.945 35.6549C107.974 33.3883 108.519 31.7022 110.164 30.9973C111.804 30.2945 113.405 31.0608 114.377 33.3273ZM128.614 27.226C127.115 23.7269 124.087 22.663 121.252 23.8782C118.4 25.1002 117.098 28.0195 118.598 31.5185C120.09 35.0019 123.109 36.0883 125.96 34.8663C128.796 33.6511 130.114 30.7251 128.614 27.226ZM126.322 28.2085C127.293 30.4751 126.743 32.1634 125.103 32.8661C123.458 33.5711 121.862 32.8026 120.89 30.536C119.919 28.2695 120.464 26.5834 122.109 25.8784C123.749 25.1757 125.35 25.9419 126.322 28.2085ZM137.385 17.1375L135.134 18.1021L138.017 24.8287L137.923 24.869L130.424 20.1208L128.439 20.9713L133.022 31.6669L135.284 30.6979L132.399 23.9661L132.477 23.9325L140.015 28.6702L141.969 27.8332L137.385 17.1375Z" fill="white"/>
</g>
</g>
<defs>
<filter id="filter0_d_301_460" x="0" y="2.28882e-05" width="168.457" height="102.274" filterUnits="userSpaceOnUse" color-interpolation-filters="sRGB">
<feFlood flood-opacity="0" result="BackgroundImageFix"/>
<feColorMatrix in="SourceAlpha" type="matrix" values="0 0 0 0 0 0 0 0 0 0 0 0 0 0 0 0 0 0 127 0" result="hardAlpha"/>
<feOffset dy="4"/>
<feGaussianBlur stdDeviation="2"/>
<feComposite in2="hardAlpha" operator="out"/>
<feColorMatrix type="matrix" values="0 0 0 0 0 0 0 0 0 0 0 0 0 0 0 0 0 0 0.25 0"/>
<feBlend mode="normal" in2="BackgroundImageFix" result="effect1_dropShadow_301_460"/>
<feBlend mode="normal" in="SourceGraphic" in2="effect1_dropShadow_301_460" result="shape"/>
</filter>
<filter id="filter1_d_301_460" x="23.5845" y="16.9913" width="120.449" height="62.8769" filterUnits="userSpaceOnUse" color-interpolation-filters="sRGB">
<feFlood flood-opacity="0" result="BackgroundImageFix"/>
<feColorMatrix in="SourceAlpha" type="matrix" values="0 0 0 0 0 0 0 0 0 0 0 0 0 0 0 0 0 0 127 0" result="hardAlpha"/>
<feOffset dy="2"/>
<feGaussianBlur stdDeviation="1"/>
<feComposite in2="hardAlpha" operator="out"/>
<feColorMatrix type="matrix" values="0 0 0 0 0 0 0 0 0 0 0 0 0 0 0 0 0 0 0.05 0"/>
<feBlend mode="normal" in2="BackgroundImageFix" result="effect1_dropShadow_301_460"/>
<feBlend mode="normal" in="SourceGraphic" in2="effect1_dropShadow_301_460" result="shape"/>
</filter>
</defs>
</svg>
