<svg xmlns="http://www.w3.org/2000/svg" viewBox="0 0 401.84 380.68"><defs><style>.a{fill:#d23032;}.a,.b,.c{fill-rule:evenodd;}.b{fill:#fff;}.c{fill:#eb8fb3;}</style></defs><path class="a" d="M456,862.13v-7a6.19,6.19,0,0,1,1.9-4.79c.86-.77,1.72-1.55,2.6-2.3a14.37,14.37,0,0,0,2.22-2.39,5.89,5.89,0,0,0,.74-3.25V800c0-.2-.33-.54-.45-.66a12.91,12.91,0,0,0-2.07-1.61,20.86,20.86,0,0,0-2.23-1.21c-.26-.11-.61-.28-.89-.37l-.2,0-.3-.12a9.93,9.93,0,0,1-5.73-5.13,14.4,14.4,0,0,1-1.21-5.44c0-2.26-2.27-19.67-.7-21.09,2.24-2,9.06,11.67,11.69,10.22a59.94,59.94,0,0,1,9.49-4.2,27,27,0,0,1,9.9-1.56c2.52.12,6.22-15.09,8.06-13.29,2,2,1.87,20.52,2,23.36.35,10.78,0,21.56,0,32.34v32.25a6.32,6.32,0,0,0,.8,3.44,16.19,16.19,0,0,0,2.36,2.73,29,29,0,0,1,2.9,3.07,8.38,8.38,0,0,1,1.68,5.41v16a10.58,10.58,0,0,1-2.6,7.26,9.53,9.53,0,0,1-7.6,2.87c-7.54-.16-15.08-.56-22.61-1.06a10.58,10.58,0,0,1-6.76-3.14,10.43,10.43,0,0,1-1.83-2.35,10.86,10.86,0,0,1-6.27,5.34c-3.55,1.14-7.49.4-10.89-.92-2.29-.89-7.86-3.78-10.41-6.72a73.5,73.5,0,0,1-8.55,2.9,27.25,27.25,0,0,1-11.37.54,25.5,25.5,0,0,1-9.2-3.25,25.14,25.14,0,0,1-7-6.08,26.71,26.71,0,0,1-4.33-8.12,29.66,29.66,0,0,1-1.49-9.39V827a2.45,2.45,0,0,0-1.25-2c-1.48-1.06-3-2-4.61-2.94a40.14,40.14,0,0,1-3.56-2.31,93.37,93.37,0,0,1,1,14.27,82.27,82.27,0,0,1-1.07,13.3,29.28,29.28,0,0,1-4.62,11.9,21.39,21.39,0,0,1-10,7.74c-5.06,2-11.11,1.71-16.38.88-9.56-1.52-18.63-5.23-24.48-13.27a37.14,37.14,0,0,1-5.82-12.94,25.69,25.69,0,0,1-1.3,3.76,22.94,22.94,0,0,1-7.08,9.35,25.64,25.64,0,0,1-10.5,4.55,48.39,48.39,0,0,1-12.66.63,35.58,35.58,0,0,1-12.88-3.14,26.48,26.48,0,0,1-14.77-17c-2.07-6.85-3.26-35.43-2-40.23,1.11-4.2,4.84,7.41,7.36,3.86l2-2.87,1.63,3.12q1.46,2.77,3,5.52a21.77,21.77,0,0,0,2.86,4.07,11.58,11.58,0,0,0,3.25,2.53,10.75,10.75,0,0,0,4.31,1c.93.06,2.78,0,3.49-.69a4.07,4.07,0,0,0,.91-2.86,3.34,3.34,0,0,0-.67-2.18,11.63,11.63,0,0,0-2.47-2.28c-1.29-.9-2.64-1.73-4-2.5-1.65-.92-3.23-2-4.86-3a22.67,22.67,0,0,1-9.82-9.95,23.88,23.88,0,0,1-2.14-6.15,30.87,30.87,0,0,1-.64-6.21c0-3.16-1.71-22.35-.38-25.23,1.21-2.62,5.15,11.15,7.36,9.3a20.28,20.28,0,0,1,7.75-4,29,29,0,0,1,9.41-.88,17.31,17.31,0,0,1,5.68,1.23,33.61,33.61,0,0,1,4.32,2.18l3.32,2a5.28,5.28,0,0,0,2.17.73.69.69,0,0,0,.25,0,.78.78,0,0,0,.07-.25,84.7,84.7,0,0,1,1.48-9.4c.73-2.74,1.47-5.48,2.25-8.2a82.13,82.13,0,0,1,3.23-9,40.08,40.08,0,0,1,5.23-9.06,24.66,24.66,0,0,1,8-6.79,18.09,18.09,0,0,1,11.19-1.71,20.21,20.21,0,0,1,11.61,6c1.47,1.57,2.5-13.29,3.39-11.34s1.51,20.76,1.51,23a12.32,12.32,0,0,1-3.3,9,28.58,28.58,0,0,1-6.73,5c-3.13,1.67-6.22,3.45-9.21,5.37a35.36,35.36,0,0,0-7,5.8A23.16,23.16,0,0,0,317,771.9a27.29,27.29,0,0,0-1.61,9.9,19,19,0,0,0,.43,3.82,25.43,25.43,0,0,1,.49,5.08,14.87,14.87,0,0,1-.69,4.49c-.76,2.39-2.86,3.33-5.25,3a10.69,10.69,0,0,1-6.76-3.54,66.72,66.72,0,0,1-4.47-5.45c-1.28-1.75-2.62-3.45-4.06-5.07a5.39,5.39,0,0,0-3.62-2,3.64,3.64,0,0,0-2.81.74,2.84,2.84,0,0,0-1,2.35,4.6,4.6,0,0,0,.86,2.68,17,17,0,0,0,2.72,3,30.37,30.37,0,0,0,3.6,2.69l3.6,2.3a45,45,0,0,1,14.35,14.46,34.53,34.53,0,0,1,2.83,5.76,74.2,74.2,0,0,1,1.32-8.7,32.08,32.08,0,0,1,5.56-12.84,20.76,20.76,0,0,1,10.35-7.31c4.77-1.52,10.15-1.34,15-.56a36.76,36.76,0,0,1,14.88,5.51,32.5,32.5,0,0,1,9.74,10.27,38.93,38.93,0,0,1,2.58,5.17c.72-1.22-.8-11.27.34-12.23,2.55-2.13,8,5.21,11.06,4a47.65,47.65,0,0,1,9.93-2.81,26.82,26.82,0,0,1,8.57-.31c2.77.45,5.87-15.5,7.87-13.51,2.36,2.34,2.43,22.81,2.43,26V838.1a4,4,0,0,0,1.24,3.25,10.85,10.85,0,0,0,5.06,1.82,7.27,7.27,0,0,0,3.75-.37c1.1-.42,1.47-1.75,1.5-2.82.37-10.24,0-20.5,0-30.75a14.56,14.56,0,0,1,.47-3.94,3.62,3.62,0,0,1,4.18-2.72c6.7.9,13.41,1.69,20.12,2.47,1.15.14,2.43-10.58,3.18-9.74,1.19,1.34,1.07,14.84,1.07,16.55v48.44a11.55,11.55,0,0,0,.17,1.84ZM352.5,822.05a25.2,25.2,0,0,0-.25-3.36,11.36,11.36,0,0,0-.89-3.12,6.93,6.93,0,0,0-1.65-2.39,4.73,4.73,0,0,0-2.48-1.09,4.28,4.28,0,0,0-2.53.2,3.43,3.43,0,0,0-1.37,1.5,8.36,8.36,0,0,0-.83,2.68,23.69,23.69,0,0,0-.24,3.25,23,23,0,0,0,.24,2.87,11.85,11.85,0,0,0,.9,3.19,8,8,0,0,0,1.81,2.64,4.86,4.86,0,0,0,2.7,1.25,2.58,2.58,0,0,0,1.77-.25,4.18,4.18,0,0,0,1.45-1.56,10.43,10.43,0,0,0,1-2.8A14.56,14.56,0,0,0,352.5,822.05Z" transform="translate(-220.03 -702.3)"/><path class="a" d="M550.49,898.45a28.78,28.78,0,0,1,3.91-3.19,34.5,34.5,0,0,1,11.83-5,60.21,60.21,0,0,1,13.24-1.45A76.61,76.61,0,0,1,594,890.18a37.89,37.89,0,0,1,12.94,5c3.93,2.44,7.41-10.72,9.74-6.73,2.68,4.6,3.21,26.42,3.21,31.68a10.61,10.61,0,0,1-4.36,8.58,13.84,13.84,0,0,1-8.6,3.26,15,15,0,0,1-7.82-2,41.64,41.64,0,0,1-5.41-3.83c-1.42-1.19-2.87-2.36-4.37-3.46a5.67,5.67,0,0,0-3.48-1.16,3.34,3.34,0,0,0-2.23.68,3,3,0,0,0-.66,2.2A1.7,1.7,0,0,0,584,926a13.62,13.62,0,0,0,3.1,1.37l.09,0c9.69,2.88,24.11-2,30.64,6,5.22,17.29,3.9,26.21,3.9,35.8a43.16,43.16,0,0,1-3.46,18.06,33.87,33.87,0,0,1-9.36,12.33,36.13,36.13,0,0,1-13.47,6.84,59.31,59.31,0,0,1-15.57,2,55.26,55.26,0,0,1-18.54-2.83A37.68,37.68,0,0,1,548,997.63a32.43,32.43,0,0,1-8.09-12.27,44,44,0,0,1-2.65-15.49,47.64,47.64,0,0,1,.68-7.91,24.4,24.4,0,0,1,2.57-7.57,15.9,15.9,0,0,1,5.37-5.8,15.5,15.5,0,0,1,8.63-2.31,14.2,14.2,0,0,1,7.46,1.89,37.16,37.16,0,0,1,5.15,3.77,44.88,44.88,0,0,0,4.36,3.38,7.12,7.12,0,0,0,4.11,1.21,14.14,14.14,0,0,0,4.28-.64c.82-.26.84-1.36.84-2.06a1.48,1.48,0,0,0-.37-1.07,7.73,7.73,0,0,0-1.68-1.39,13.58,13.58,0,0,0-2.34-1.12c-.93-.36-1.87-.74-2.77-1.19-3.32-1.48-6.71-2.82-10.14-4a42,42,0,0,1-10.12-5.11,25.88,25.88,0,0,1-7.63-8.33c-2.33-4-3-9-3-13.58a33.57,33.57,0,0,1,.31-4.71c-.66,1.63-1.28,3.29-1.86,5-3.16,9.08-4.26,18.91-4.26,28.48v54.46a124.11,124.11,0,0,1-3.42,28.66,81.8,81.8,0,0,1-11.2,26.32,61.83,61.83,0,0,1-20.38,19.32c-9.31,5.51-20,7.48-30.74,7.48a57.86,57.86,0,0,1-15.49-2,38.48,38.48,0,0,1-13.13-6.32,31.78,31.78,0,0,1-9.09-10.79c-2.47-4.72-4.49-29.9-4.49-35.19,0-6.36,2.46,7.23,6.6,2.24,4-4.83,9.56-7.32,15.68-8.3a67,67,0,0,1,10.5-.77c3.63,0,7.26-.1,10.89-.28a54.36,54.36,0,0,0,10.31-1.52,21.39,21.39,0,0,0,8.4-4.16,20.6,20.6,0,0,0,5.81-8.29,35.35,35.35,0,0,0,2.2-11.61c-1.25.42-2.48.87-3.7,1.36-1.92.79-3.88,1.5-5.86,2.12s-3.72,1.06-5.61,1.45a31.09,31.09,0,0,1-6.31.6c-6.57,0-12.91-1.58-18-5.92a39.36,39.36,0,0,1-10.46-14.19,65.22,65.22,0,0,1-4.9-17.87q-.34,3.82-.93,7.62a51.64,51.64,0,0,1-6.33,18.48,37.93,37.93,0,0,1-13.62,13.54c-6.79,4-15,5.24-22.82,5.24-13.28,0-26.25-3.42-34.63-14.36-8.87-11.6-10.73-28.5-10.6-42.63v-.57q-.37,5.59-1.17,11.15a101.92,101.92,0,0,1-3.53,15.71,48.89,48.89,0,0,1-6.73,14,34,34,0,0,1-11,10,32.68,32.68,0,0,1-16.26,3.82c-2.88,0-5.77-.09-8.65-.19-3.46-.12-6.92-.19-10.37-.19q-6,0-12,.19c-3.6.12-7.2.19-10.79.19a11.91,11.91,0,0,1-7.36-2.21,13.57,13.57,0,0,1-4.21-5.31,24.42,24.42,0,0,1-1.84-6.54,45.17,45.17,0,0,1-.49-6.36V956.63a10,10,0,0,1,3.15-7.86,45.63,45.63,0,0,1,5.57-4.2,50.52,50.52,0,0,0,5.09-3.75,5.37,5.37,0,0,0,1.67-4.33V919.33c0-5.57-1.08-11.22-4.43-15.8-3.21-4.37-8.14-5.74-13.38-5.74a11.93,11.93,0,0,0-6.42,1.82,8.72,8.72,0,0,0-2.53,2.37c1.31.07,2.63.17,3.93.29a25.48,25.48,0,0,1,8.25,2.24,17.22,17.22,0,0,1,6.92,5.85c2.16,3.08,2.81,6.95,2.81,10.65,0,6.24-1.95,11.84-6.68,16a23.77,23.77,0,0,1-16.35,5.86,25.78,25.78,0,0,1-12.5-2.87,24.64,24.64,0,0,1-8.57-7.76,34.11,34.11,0,0,1-4.88-11.13c-2.22-8.86-4.6-37.24-.54-46.93,1.9-5.33,6.55,6.54,10.21,2.22a40,40,0,0,1,13.1-10.15,38.85,38.85,0,0,1,17.17-3.76q3.24,0,6.5.1c1.84.05,3.68.09,5.53.09h12l7-.37c2.42-.13,4.86-.19,7.29-.19h8.11c8.32,0,17.11,1.34,24.27,5.83a39.83,39.83,0,0,1,14.38,15.65,66.9,66.9,0,0,1,6.66,22.26,203.32,203.32,0,0,1,1.6,26.1q0,4.4-.12,8.79A127.94,127.94,0,0,1,358,925.16a56.11,56.11,0,0,1,7.68-19.87,35.35,35.35,0,0,1,14.09-12.59c6.45-3.2,13.86-4.24,21-4.24s14.57,1.13,21,4.55a36.23,36.23,0,0,1,13.77,12.87,57,57,0,0,1,7.38,19.76q.72,3.76,1.18,7.59.43-3.39,1.07-6.74a70.64,70.64,0,0,1,6.34-19,43.71,43.71,0,0,1,12-14.79c5.41-4.28,11.82-6.06,18.67-6.06a30.06,30.06,0,0,1,11.15,2.2c3.11,1.25,6.17,2.71,9.16,4.25a93.94,93.94,0,0,1,7.65-33,98.09,98.09,0,0,1,9.63-17.25,69.8,69.8,0,0,1,13.56-14.53,63.94,63.94,0,0,1,17.56-9.94,60.56,60.56,0,0,1,21.37-3.68,28.57,28.57,0,0,1,8.46,1.31,20.61,20.61,0,0,1,7.81,4.47c2.42,2.2,4.46-10.46,5.79-7.49,1.63,3.66,1.9,23.2,1.9,27.17a21.74,21.74,0,0,1-4.82,13.23,105.36,105.36,0,0,1-11.23,12.38q-7.16,6.86-14.25,13.78a108.55,108.55,0,0,0-14,16.92q-.69,1-1.35,2.07Zm-243.68-.66v43.64H308c1.61,0,3.23-.11,4.83-.27a11.77,11.77,0,0,0,4.41-1.34,9.67,9.67,0,0,0,3.36-3.06,10,10,0,0,0,1.3-5.5V910.38a20.63,20.63,0,0,0-.51-4.22,18.82,18.82,0,0,0-1.5-4.33,9.52,9.52,0,0,0-2.36-3.05,3.9,3.9,0,0,0-2.62-1Zm101.86,40.93a39.91,39.91,0,0,0-.35-5.12,17.37,17.37,0,0,0-1.33-4.73,8.65,8.65,0,0,0-2.47-3.3,5.88,5.88,0,0,0-3.77-1.11,7,7,0,0,0-4.29,1.14,8.43,8.43,0,0,0-2.52,3.27,17.37,17.37,0,0,0-1.33,4.73,39.91,39.91,0,0,0-.35,5.12,33.73,33.73,0,0,0,.35,4.38A18.88,18.88,0,0,0,394,948a10.21,10.21,0,0,0,2.7,3.7,6,6,0,0,0,4.1,1.34,4.87,4.87,0,0,0,3.21-1.11,9.46,9.46,0,0,0,2.59-3.36,20.16,20.16,0,0,0,1.6-4.89,26.06,26.06,0,0,0,.52-4.91Zm75.19,6.69a17,17,0,0,0,2.57,6.59c1.2,1.64,3.68,1.92,5.54,1.92a8.12,8.12,0,0,0,5.28-1.85c1.74-1.41,2.09-4,2.09-6.07V932.57c0-2.3-.46-4.72-2.21-6.36a8.86,8.86,0,0,0-6.28-2.12,4.67,4.67,0,0,0-3.37,1.18,9.74,9.74,0,0,0-2.36,3.68,19.87,19.87,0,0,0-1.17,5.21c-.17,1.89-.27,3.79-.27,5.68,0,1.08,0,2.16.08,3.23C483.81,943.85,483.85,944.63,483.86,945.41Z" transform="translate(-220.03 -702.3)"/><path class="a" d="M455,842.82v-7a6.2,6.2,0,0,1,1.91-4.79c.86-.77,1.71-1.54,2.6-2.29a14.75,14.75,0,0,0,2.21-2.39,5.82,5.82,0,0,0,.74-3.25V780.72c0-.19-.32-.54-.44-.66a12.85,12.85,0,0,0-2.07-1.6,19.22,19.22,0,0,0-2.23-1.21,8.76,8.76,0,0,0-.89-.37l-.2,0-.3-.12a10,10,0,0,1-5.74-5.13,14.4,14.4,0,0,1-1.21-5.44c0-2.26,2-4.32,3.52-5.74a40.31,40.31,0,0,1,7.48-5.13,59,59,0,0,1,9.49-4.2,26.51,26.51,0,0,1,9.9-1.56,10.12,10.12,0,0,1,6.78,2.61,10.74,10.74,0,0,1,3.24,7.45c.34,10.78,0,21.56,0,32.35V824.2a6.32,6.32,0,0,0,.81,3.44,16.53,16.53,0,0,0,2.35,2.73,29,29,0,0,1,2.91,3.06,8.4,8.4,0,0,1,1.68,5.41v16a10.57,10.57,0,0,1-2.6,7.26,9.54,9.54,0,0,1-7.6,2.88c-7.55-.17-15.09-.56-22.61-1.07a10.53,10.53,0,0,1-6.77-3.14,10.26,10.26,0,0,1-1.82-2.34,10.88,10.88,0,0,1-6.27,5.33c-3.56,1.14-7.49.4-10.89-.91-2.29-.89-7.86-3.78-10.41-6.73A73.56,73.56,0,0,1,420,859a27.09,27.09,0,0,1-11.37.53,25.49,25.49,0,0,1-9.2-3.24,25,25,0,0,1-7-6.09,26.48,26.48,0,0,1-4.33-8.12,29.55,29.55,0,0,1-1.49-9.38v-25a2.48,2.48,0,0,0-1.25-2c-1.48-1.06-3-2-4.61-2.94a39.42,39.42,0,0,1-3.57-2.3,93.38,93.38,0,0,1,1,14.27,81.26,81.26,0,0,1-1.08,13.3,29.17,29.17,0,0,1-4.61,11.89,21.37,21.37,0,0,1-10,7.75c-5,2-11.1,1.71-16.37.87-9.57-1.51-18.63-5.22-24.49-13.26a37.2,37.2,0,0,1-5.81-12.94,26.79,26.79,0,0,1-1.3,3.75,22.93,22.93,0,0,1-7.09,9.36A25.58,25.58,0,0,1,297,840a48.46,48.46,0,0,1-12.67.63,35.56,35.56,0,0,1-12.87-3.13,27.44,27.44,0,0,1-9.29-6.88,27.72,27.72,0,0,1-5.48-10.16A42.22,42.22,0,0,1,255,808.18a48.55,48.55,0,0,1,1.62-12.47A36,36,0,0,1,262,784l2-2.87,1.63,3.11q1.45,2.79,3,5.53a22.64,22.64,0,0,0,2.87,4.07,11.58,11.58,0,0,0,3.25,2.53,10.88,10.88,0,0,0,4.31,1c.92,0,2.77,0,3.48-.7a4,4,0,0,0,.92-2.85,3.43,3.43,0,0,0-.67-2.19,11.85,11.85,0,0,0-2.47-2.27c-1.29-.9-2.64-1.73-4-2.5-1.66-.93-3.23-2-4.87-3a25.21,25.21,0,0,1-5.92-4.44,24.63,24.63,0,0,1-3.89-5.51,24.36,24.36,0,0,1-2.15-6.16,31.43,31.43,0,0,1-.63-6.2,21.71,21.71,0,0,1,1.84-9.17,19.41,19.41,0,0,1,5.14-6.77,20.21,20.21,0,0,1,7.75-4,29.24,29.24,0,0,1,9.41-.87,17.3,17.3,0,0,1,5.68,1.22,35,35,0,0,1,4.32,2.18l3.32,2a5.12,5.12,0,0,0,2.17.72.53.53,0,0,0,.25,0,.77.77,0,0,0,.07-.26,83.13,83.13,0,0,1,1.48-9.4c.72-2.74,1.46-5.47,2.25-8.19a82.13,82.13,0,0,1,3.23-9A40.36,40.36,0,0,1,311,711a24.51,24.51,0,0,1,8-6.78,18.09,18.09,0,0,1,11.19-1.71,19.54,19.54,0,0,1,15.14,11.3,15.13,15.13,0,0,1,1.36,6.32,12.27,12.27,0,0,1-3.3,9,28.52,28.52,0,0,1-6.72,5c-3.14,1.67-6.22,3.45-9.21,5.37a35.66,35.66,0,0,0-7,5.79,23.2,23.2,0,0,0-4.49,7.28,27.06,27.06,0,0,0-1.62,9.89,19,19,0,0,0,.43,3.83,24.7,24.7,0,0,1,.5,5.07,14.82,14.82,0,0,1-.69,4.49c-.76,2.4-2.86,3.33-5.25,3.06a10.69,10.69,0,0,1-6.76-3.54,61.48,61.48,0,0,1-4.47-5.46c-1.28-1.74-2.63-3.44-4.07-5.06a5.42,5.42,0,0,0-3.61-2,3.7,3.7,0,0,0-2.81.74,2.87,2.87,0,0,0-1,2.36,4.57,4.57,0,0,0,.86,2.67,16.33,16.33,0,0,0,2.72,3,29.23,29.23,0,0,0,3.6,2.68l3.6,2.31a45,45,0,0,1,14.35,14.46,33.63,33.63,0,0,1,2.82,5.75,74.87,74.87,0,0,1,1.33-8.7,32.2,32.2,0,0,1,5.56-12.84,20.67,20.67,0,0,1,10.34-7.3c4.78-1.53,10.16-1.34,15.05-.56a36.6,36.6,0,0,1,14.88,5.5,32.5,32.5,0,0,1,9.73,10.28,37.76,37.76,0,0,1,2.58,5.17,12.79,12.79,0,0,1,2.85-3.27,31.94,31.94,0,0,1,8.56-5,47.65,47.65,0,0,1,9.93-2.81,27.11,27.11,0,0,1,8.57-.32,13.17,13.17,0,0,1,7.31,3.55c2.35,2.34,3,5.76,3,8.95v29.24a4,4,0,0,0,1.24,3.25,11,11,0,0,0,5,1.82,7.35,7.35,0,0,0,3.75-.37c1.11-.42,1.47-1.76,1.51-2.82.36-10.25,0-20.5,0-30.75a14.5,14.5,0,0,1,.46-3.94,3.63,3.63,0,0,1,4.19-2.72c6.69.89,13.41,1.68,20.12,2.47a4.69,4.69,0,0,1,2.85,1.72c1.19,1.33,1.4,3.37,1.4,5.09V841a11.66,11.66,0,0,0,.16,1.85ZM351.42,802.73a25,25,0,0,0-.24-3.35,11.36,11.36,0,0,0-.89-3.12,7,7,0,0,0-1.65-2.39,4.75,4.75,0,0,0-2.48-1.1,4.4,4.4,0,0,0-2.54.2,3.52,3.52,0,0,0-1.36,1.5,8.51,8.51,0,0,0-.84,2.69,25.25,25.25,0,0,0-.24,3.25,21.1,21.1,0,0,0,.25,2.86,12.28,12.28,0,0,0,.89,3.2,8.26,8.26,0,0,0,1.82,2.64,4.78,4.78,0,0,0,2.7,1.24,2.58,2.58,0,0,0,1.77-.24,4.11,4.11,0,0,0,1.44-1.57,9.9,9.9,0,0,0,1-2.8A15.18,15.18,0,0,0,351.42,802.73Z" transform="translate(-220.03 -702.3)"/><path class="b" d="M344.52,720.14q0,4.85-2.67,7.51a26.77,26.77,0,0,1-6.22,4.6c-3.41,1.8-6.53,3.64-9.36,5.47a37.26,37.26,0,0,0-7.41,6.14A25.42,25.42,0,0,0,314,751.8a29.14,29.14,0,0,0-1.76,10.68,21.38,21.38,0,0,0,.47,4.26,22.81,22.81,0,0,1,.46,4.64,12.69,12.69,0,0,1-.6,3.84c-.39,1.24-1.38,1.76-2.95,1.58a8.57,8.57,0,0,1-5.44-2.87,61.73,61.73,0,0,1-4.31-5.27c-1.36-1.85-2.74-3.59-4.19-5.22a7.53,7.53,0,0,0-5-2.68,5.74,5.74,0,0,0-4.38,1.23,5,5,0,0,0-1.77,4,6.73,6.73,0,0,0,1.24,3.89,18.51,18.51,0,0,0,3.08,3.42,30.25,30.25,0,0,0,3.86,2.88c1.36.87,2.55,1.63,3.59,2.31a42.52,42.52,0,0,1,13.68,13.77c3.35,5.46,5.05,12,5.05,19.48a33.74,33.74,0,0,1-2.36,13.46,20.66,20.66,0,0,1-6.41,8.49,23.36,23.36,0,0,1-9.62,4.16,46.34,46.34,0,0,1-12.11.59,33.16,33.16,0,0,1-12.1-2.93,24.38,24.38,0,0,1-13.63-15.73,39.91,39.91,0,0,1-1.62-11.6,46.56,46.56,0,0,1,1.55-11.92,34,34,0,0,1,5.12-11c1.05,2,2.05,3.84,3,5.57a24,24,0,0,0,3.14,4.46,13.91,13.91,0,0,0,3.86,3,12.9,12.9,0,0,0,5.17,1.27c2.43.14,4.17-.31,5.17-1.36a6,6,0,0,0,1.5-4.33,5.49,5.49,0,0,0-1.12-3.51,13.52,13.52,0,0,0-2.93-2.7,48.21,48.21,0,0,0-4.19-2.62c-1.57-.88-3.19-1.85-4.84-2.93a20.37,20.37,0,0,1-5.43-4,22.31,22.31,0,0,1-3.55-5,21.66,21.66,0,0,1-1.95-5.6,28.73,28.73,0,0,1-.6-5.78,19.38,19.38,0,0,1,1.65-8.27,17.09,17.09,0,0,1,4.57-6,18.1,18.1,0,0,1,6.93-3.62,27.08,27.08,0,0,1,8.72-.8,15.2,15.2,0,0,1,5,1.06,31.87,31.87,0,0,1,4.05,2.05l3.34,2a7.28,7.28,0,0,0,3.07,1c1.22.1,2.1-.57,2.62-2.09a45,45,0,0,1,1.43-9.17q1.17-4.42,2.24-8.15a82.69,82.69,0,0,1,3.15-8.74,37.73,37.73,0,0,1,4.95-8.59,22.5,22.5,0,0,1,7.27-6.2,16,16,0,0,1,9.88-1.48,17.37,17.37,0,0,1,5.7,1.87,17.13,17.13,0,0,1,7.79,8.2,13,13,0,0,1,1.17,5.43Zm31.56,94.55a87.28,87.28,0,0,0-1.5-16.85,41.85,41.85,0,0,0-5-13.47,30.23,30.23,0,0,0-9.1-9.6,34.44,34.44,0,0,0-14-5.17c-5.57-.88-10.27-.71-14.05.49a18.5,18.5,0,0,0-9.29,6.57,29.57,29.57,0,0,0-5.17,12,87.07,87.07,0,0,0-1.72,16.91c-.1,12.32,2.3,21.76,7.15,28.41s12.54,10.74,23.08,12.41c6.3,1,11.36.8,15.25-.75a19.21,19.21,0,0,0,9-7,27,27,0,0,0,4.27-11,79.49,79.49,0,0,0,1-12.95Zm-22.51-12a28.84,28.84,0,0,0-.26-3.63,14,14,0,0,0-1.05-3.7,9.09,9.09,0,0,0-2.17-3.11,6.91,6.91,0,0,0-3.6-1.64,6.08,6.08,0,0,0-3.93.46,5.51,5.51,0,0,0-2.21,2.39,10.45,10.45,0,0,0-1.05,3.37,25.13,25.13,0,0,0-.26,3.54,24.74,24.74,0,0,0,.26,3.14,14.11,14.11,0,0,0,1.05,3.76,10.31,10.31,0,0,0,2.28,3.33,6.89,6.89,0,0,0,3.86,1.83,4.64,4.64,0,0,0,3.22-.52,6.25,6.25,0,0,0,2.22-2.36,12.07,12.07,0,0,0,1.23-3.4,16.25,16.25,0,0,0,.41-3.46Zm75.79,50.65a.91.91,0,0,1-.12.11,72.57,72.57,0,0,1-9.82,3.45,24.83,24.83,0,0,1-10.48.49,23.46,23.46,0,0,1-8.44-3,23.17,23.17,0,0,1-6.36-5.57,24.52,24.52,0,0,1-4-7.47,27.53,27.53,0,0,1-1.38-8.71v-25a4.52,4.52,0,0,0-2.14-3.77c-1.45-1-3.05-2-4.79-3.06a34.21,34.21,0,0,1-4.79-3.28,5.7,5.7,0,0,1-2.14-4.62c0-2.25,1.11-4.28,3.33-6.15a29.54,29.54,0,0,1,8-4.64,45.44,45.44,0,0,1,9.49-2.69,24.92,24.92,0,0,1,7.86-.31,11,11,0,0,1,6.14,3c1.58,1.57,2.36,4,2.36,7.43v29.24a6,6,0,0,0,2,4.9,12.39,12.39,0,0,0,6.1,2.29,9.37,9.37,0,0,0,4.83-.49c1.48-.57,2.43-2.16,2.89-4.75V789.92a12.36,12.36,0,0,1,.38-3.35,1.5,1.5,0,0,1,1.83-1.19c6.72.9,13.44,1.69,20.16,2.48a2.72,2.72,0,0,1,1.5,1c.56.64.86,1.84.86,3.67V841c0,5.52,3.88,10.62,2.43,14.52-5.57,14.93-25.45.55-25.73-2.11Zm66,1.45v-16a6.3,6.3,0,0,0-1.19-4.05,28.3,28.3,0,0,0-2.69-2.84,17.91,17.91,0,0,1-2.67-3.09,8,8,0,0,1-1.19-4.66V759.67a10.44,10.44,0,0,0-2.6-6,7.94,7.94,0,0,0-5.38-2,24.47,24.47,0,0,0-9.11,1.45,56.11,56.11,0,0,0-9.14,4A37.43,37.43,0,0,0,454.3,762c-1.87,1.68-2.81,3.07-2.81,4.14a12.23,12.23,0,0,0,1.05,4.62c.69,1.68,2.21,3,4.57,4a6.94,6.94,0,0,1,1.45.54,21.32,21.32,0,0,1,2.48,1.35,14.45,14.45,0,0,1,2.43,1.88,3.1,3.1,0,0,1,1.1,2.2V823.1a7.47,7.47,0,0,1-1.17,4.54,16.8,16.8,0,0,1-2.55,2.74c-.93.79-1.77,1.55-2.55,2.25a4.05,4.05,0,0,0-1.19,3.19V854a7.05,7.05,0,0,0,2.31,5.22,8.44,8.44,0,0,0,5.41,2.53c7.5.51,15,.9,22.51,1.07,2.62,0,4.62-.67,6-2.17A8.43,8.43,0,0,0,495.35,854.83Z" transform="translate(-220.03 -702.3)"/><path class="c" d="M263.62,789.56a32,32,0,0,0-2.89,7.24,44.59,44.59,0,0,0-1.48,11.38,37.73,37.73,0,0,0,1.53,11,22.17,22.17,0,0,0,12.49,14.41,31.39,31.39,0,0,0,11.33,2.73,44.62,44.62,0,0,0,11.54-.55,21.45,21.45,0,0,0,8.75-3.77,18.67,18.67,0,0,0,5.73-7.64,32,32,0,0,0,2.18-12.6,34.52,34.52,0,0,0-4.73-18.36,40.71,40.71,0,0,0-13-13.08l-3.6-2.3a35.33,35.33,0,0,1-4.12-3.08,21,21,0,0,1-3.42-3.81,8.87,8.87,0,0,1-1.62-5.12,7.13,7.13,0,0,1,2.52-5.64,7.91,7.91,0,0,1,6-1.73,9.63,9.63,0,0,1,6.43,3.4c1.53,1.72,3,3.52,4.32,5.37a59.91,59.91,0,0,0,4.16,5.09,6.45,6.45,0,0,0,4.1,2.18,2.21,2.21,0,0,0,.63,0,.16.16,0,0,0,0-.08,10.49,10.49,0,0,0,.5-3.2,20.42,20.42,0,0,0-.41-4.2,23.25,23.25,0,0,1-.52-4.7A31.53,31.53,0,0,1,312,751a27.68,27.68,0,0,1,5.33-8.6,39.7,39.7,0,0,1,7.83-6.5c3.08-2,6.27-3.82,9.51-5.55a24,24,0,0,0,5.71-4.24,8.11,8.11,0,0,0,2-6,10.93,10.93,0,0,0-1-4.54,15.6,15.6,0,0,0-11.83-8.83A13.86,13.86,0,0,0,321,708a20.3,20.3,0,0,0-6.58,5.61,36.14,36.14,0,0,0-4.67,8.11,79.11,79.11,0,0,0-3.07,8.51c-.77,2.69-1.51,5.4-2.23,8.1a83.7,83.7,0,0,0-1.38,8.93,4.44,4.44,0,0,1-4.92,3.92,9.4,9.4,0,0,1-4-1.3c-1.12-.65-2.23-1.32-3.35-2A29.56,29.56,0,0,0,287,746a13.11,13.11,0,0,0-4.29-.91,24.91,24.91,0,0,0-8,.73,16,16,0,0,0-6.12,3.19,15.07,15.07,0,0,0-4,5.28,17.57,17.57,0,0,0-1.44,7.37,26.69,26.69,0,0,0,.55,5.35,19.17,19.17,0,0,0,1.76,5.05,20.35,20.35,0,0,0,3.21,4.55,21.36,21.36,0,0,0,4.94,3.65c1.62.94,3.18,2,4.81,2.92a50.8,50.8,0,0,1,4.38,2.73,15.75,15.75,0,0,1,3.38,3.14,7.64,7.64,0,0,1,1.58,4.83,8.19,8.19,0,0,1-2.09,5.81c-1.75,1.84-4.45,2.16-6.86,2a15,15,0,0,1-6-1.51,15.87,15.87,0,0,1-4.46-3.47,26.5,26.5,0,0,1-3.43-4.86l-1.28-2.33Zm110.32,25.13a77,77,0,0,1-1,12.6A24.83,24.83,0,0,1,369,837.45a17.08,17.08,0,0,1-8.05,6.19c-4.26,1.69-9.69,1.33-14.12.62-8.39-1.33-16.53-4.47-21.69-11.55-5.53-7.59-6.83-18-6.73-27.13a82.12,82.12,0,0,1,1.66-16.48A28.17,28.17,0,0,1,324.85,778a16.42,16.42,0,0,1,8.24-5.82c4.1-1.31,8.87-1.08,13.07-.42a32.54,32.54,0,0,1,13.14,4.83,28.16,28.16,0,0,1,8.46,8.92,40.09,40.09,0,0,1,4.72,12.79,85.38,85.38,0,0,1,1.46,16.43Zm-18.22-12a18.31,18.31,0,0,1-.46,3.9,14,14,0,0,1-1.46,4,8.45,8.45,0,0,1-3,3.15,6.81,6.81,0,0,1-4.66.8,9.06,9.06,0,0,1-5-2.42,12.43,12.43,0,0,1-2.76-4,16.94,16.94,0,0,1-1.2-4.31,26.14,26.14,0,0,1-.28-3.42,28.9,28.9,0,0,1,.28-3.83,13,13,0,0,1,1.26-4.05,7.8,7.8,0,0,1,3.07-3.29,8.16,8.16,0,0,1,5.33-.71,9,9,0,0,1,4.72,2.19,11.43,11.43,0,0,1,2.68,3.83,15.78,15.78,0,0,1,1.2,4.27,28.46,28.46,0,0,1,.29,3.91Zm75.74,50.16a15.75,15.75,0,0,0,2.84,2.55,28,28,0,0,0,6.19,3.39c5.32,2.06,10.34,1.93,12.59-4.09.55-1.47-.25-3.82-.7-5.25-.91-2.81-1.87-5.51-1.87-8.52V792.54a6.4,6.4,0,0,0-.31-2.24,3.58,3.58,0,0,0-.34-.33c-6.54-.76-13.07-1.53-19.59-2.41a11.88,11.88,0,0,0-.2,2.36c0,10.3.36,20.6,0,30.9-.1,2.86-1.48,5.61-4.26,6.68a11.59,11.59,0,0,1-5.92.6,14.65,14.65,0,0,1-7.15-2.75,8.14,8.14,0,0,1-2.8-6.56V789.55c0-1.93-.28-4.47-1.73-5.91a8.94,8.94,0,0,0-5-2.35,23.26,23.26,0,0,0-7.16.31,43.49,43.49,0,0,0-9,2.56,27.6,27.6,0,0,0-7.41,4.3,6,6,0,0,0-2.57,4.5,3.59,3.59,0,0,0,1.36,3,34.42,34.42,0,0,0,4.5,3.08c1.7,1,3.37,2,5,3.16a6.69,6.69,0,0,1,3,5.52v25a25.45,25.45,0,0,0,1.27,8,22.41,22.41,0,0,0,3.63,6.82,21,21,0,0,0,5.77,5,21.23,21.23,0,0,0,7.67,2.69,22.66,22.66,0,0,0,9.59-.44,68.68,68.68,0,0,0,9.14-3.19l3-3.26.48,4.47Zm26.29-80.2a10.35,10.35,0,0,1,1.7.65,24,24,0,0,1,2.73,1.48A16.65,16.65,0,0,1,465,777a5.22,5.22,0,0,1,1.74,3.74V823.1a9.65,9.65,0,0,1-1.59,5.83,19.61,19.61,0,0,1-2.88,3.09c-.85.72-1.68,1.46-2.5,2.21a2.15,2.15,0,0,0-.48,1.59V854a4.9,4.9,0,0,0,1.66,3.68,6.3,6.3,0,0,0,4.05,1.93c7.47.5,14.94.89,22.42,1.06a5.45,5.45,0,0,0,4.31-1.45,6.33,6.33,0,0,0,1.5-4.4v-16a4.46,4.46,0,0,0-.7-2.69,26.68,26.68,0,0,0-2.48-2.62,20.08,20.08,0,0,1-3-3.45,10.21,10.21,0,0,1-1.57-5.88V792c0-10.74.34-21.48,0-32.21a6.44,6.44,0,0,0-1.95-4.52,6,6,0,0,0-4-1.4,22.59,22.59,0,0,0-8.3,1.34,54.53,54.53,0,0,0-8.81,3.9,35.77,35.77,0,0,0-6.67,4.56c-.47.42-2,1.91-2.11,2.55a10.2,10.2,0,0,0,.89,3.8A5.8,5.8,0,0,0,457.75,772.69Z" transform="translate(-220.03 -702.3)"/><path class="a" d="M549.42,879.13a27.41,27.41,0,0,1,3.91-3.18,34.64,34.64,0,0,1,11.83-5,60.76,60.76,0,0,1,13.24-1.45,76.44,76.44,0,0,1,14.48,1.35,37.92,37.92,0,0,1,13,4.94,27.61,27.61,0,0,1,9.39,9.7c2.68,4.59,3.56,10,3.56,15.25a10.66,10.66,0,0,1-4.36,8.59,13.84,13.84,0,0,1-8.61,3.26,14.91,14.91,0,0,1-7.81-2,42.63,42.63,0,0,1-5.41-3.83c-1.42-1.2-2.87-2.36-4.37-3.46a5.68,5.68,0,0,0-3.48-1.17,3.3,3.3,0,0,0-2.23.69,3,3,0,0,0-.66,2.2,1.67,1.67,0,0,0,1.06,1.58A13,13,0,0,0,586,908l.09,0c9.69,2.88,19.51,7.55,26,15.52,6.15,7.52,8.5,16.66,8.5,26.26,0,6.13-.87,12.44-3.46,18.05a33.79,33.79,0,0,1-9.36,12.33A36.21,36.21,0,0,1,594.35,987a58.93,58.93,0,0,1-15.58,2,55.2,55.2,0,0,1-18.53-2.83,37.74,37.74,0,0,1-13.34-7.92A32.24,32.24,0,0,1,538.81,966a43.92,43.92,0,0,1-2.65-15.48,46.71,46.71,0,0,1,.68-7.92,24.41,24.41,0,0,1,2.56-7.56,16.18,16.18,0,0,1,5.37-5.81,15.53,15.53,0,0,1,8.64-2.31,14.15,14.15,0,0,1,7.45,1.9,37.31,37.31,0,0,1,5.15,3.76,44.76,44.76,0,0,0,4.37,3.39,7.09,7.09,0,0,0,4.1,1.21,14.16,14.16,0,0,0,4.29-.64c.81-.26.84-1.36.84-2.06a1.5,1.5,0,0,0-.37-1.08,7.92,7.92,0,0,0-1.68-1.38,13.63,13.63,0,0,0-2.34-1.13c-.94-.35-1.87-.74-2.77-1.18q-5-2.22-10.15-4a42.43,42.43,0,0,1-10.12-5.12,25.76,25.76,0,0,1-7.62-8.33c-2.34-4-3-9-3-13.57a33.81,33.81,0,0,1,.31-4.72q-1,2.46-1.86,5c-3.16,9.08-4.27,18.91-4.27,28.48v54.46a124,124,0,0,1-3.41,28.65,81.65,81.65,0,0,1-11.21,26.33,61.7,61.7,0,0,1-20.37,19.32c-9.31,5.51-20,7.48-30.75,7.48a57.91,57.91,0,0,1-15.49-2,38.9,38.9,0,0,1-13.12-6.32,31.91,31.91,0,0,1-9.1-10.79,32.75,32.75,0,0,1-3.41-15.26c0-6.36,1.38-12.7,5.53-17.69,4-4.83,9.55-7.32,15.67-8.3a66,66,0,0,1,10.51-.78q5.44,0,10.89-.27a53.58,53.58,0,0,0,10.31-1.53,21.23,21.23,0,0,0,8.4-4.15,20.67,20.67,0,0,0,5.8-8.29,34.9,34.9,0,0,0,2.2-11.62c-1.24.42-2.48.88-3.69,1.37-1.93.78-3.88,1.5-5.86,2.11a57.74,57.74,0,0,1-5.61,1.45,31.17,31.17,0,0,1-6.31.61c-6.57,0-12.91-1.59-18-5.92a39.31,39.31,0,0,1-10.46-14.2,65.22,65.22,0,0,1-4.9-17.87c-.24,2.55-.55,5.1-.93,7.63a51.64,51.64,0,0,1-6.33,18.48,37.9,37.9,0,0,1-13.62,13.53c-6.79,4-15.05,5.25-22.83,5.25-13.27,0-26.24-3.43-34.62-14.36-8.87-11.6-10.73-28.5-10.6-42.64v-.56c-.25,3.73-.65,7.44-1.17,11.14a101.78,101.78,0,0,1-3.53,15.72A48.84,48.84,0,0,1,343,972.31a33.89,33.89,0,0,1-11,10,32.65,32.65,0,0,1-16.25,3.82c-2.88,0-5.78-.08-8.66-.18-3.45-.12-6.91-.19-10.37-.19-4,0-8,0-11.95.19q-5.4.18-10.8.18a11.9,11.9,0,0,1-7.36-2.2,13.54,13.54,0,0,1-4.2-5.31,24.81,24.81,0,0,1-1.85-6.54,45.3,45.3,0,0,1-.48-6.37V937.32a10,10,0,0,1,3.15-7.86,46.75,46.75,0,0,1,5.57-4.21,47.62,47.62,0,0,0,5.09-3.75,5.34,5.34,0,0,0,1.67-4.33V900c0-5.58-1.09-11.22-4.44-15.8-3.2-4.38-8.13-5.74-13.37-5.74a11.85,11.85,0,0,0-6.42,1.82,8.46,8.46,0,0,0-2.53,2.37c1.31.06,2.62.17,3.93.29A25.23,25.23,0,0,1,261,885.2a17.1,17.1,0,0,1,6.91,5.84c2.17,3.08,2.82,7,2.82,10.65,0,6.25-1.95,11.84-6.69,16.06a23.77,23.77,0,0,1-16.34,5.86,25.74,25.74,0,0,1-12.51-2.88,24.58,24.58,0,0,1-8.56-7.75,34.18,34.18,0,0,1-4.89-11.14,53.84,53.84,0,0,1-1.55-13,50.74,50.74,0,0,1,2.92-17.14,46.66,46.66,0,0,1,8.31-14.56A39.82,39.82,0,0,1,244.47,847a38.67,38.67,0,0,1,17.16-3.76c2.17,0,4.34,0,6.51.09q2.76.09,5.52.09h12l7-.37c2.43-.13,4.87-.19,7.3-.19h8.11c8.31,0,17.11,1.34,24.27,5.83a39.91,39.91,0,0,1,14.37,15.66,66.45,66.45,0,0,1,6.66,22.25A203.48,203.48,0,0,1,355,912.7c0,2.93-.05,5.86-.12,8.79a127.68,127.68,0,0,1,2.05-15.64A56,56,0,0,1,364.59,886a35.4,35.4,0,0,1,14.08-12.59c6.46-3.19,13.86-4.23,21-4.23s14.58,1.12,21,4.54a36.36,36.36,0,0,1,13.76,12.87,56.86,56.86,0,0,1,7.38,19.77q.72,3.76,1.18,7.59c.29-2.26.66-4.51,1.07-6.75a71.06,71.06,0,0,1,6.35-19,43.74,43.74,0,0,1,12-14.8A29.37,29.37,0,0,1,481,867.28a29.78,29.78,0,0,1,11.14,2.21c3.11,1.24,6.17,2.7,9.17,4.25a92.31,92.31,0,0,1,1.83-14.62A93.67,93.67,0,0,1,509,840.7a98.18,98.18,0,0,1,9.63-17.26,69.73,69.73,0,0,1,13.56-14.52A63.94,63.94,0,0,1,549.73,799a60.29,60.29,0,0,1,21.36-3.68,28.32,28.32,0,0,1,8.47,1.31,20.36,20.36,0,0,1,7.8,4.47,23.35,23.35,0,0,1,5.55,7.89,29,29,0,0,1,2.15,11.79A21.74,21.74,0,0,1,590.24,834,106.16,106.16,0,0,1,579,846.36q-7.15,6.85-14.25,13.79a108.55,108.55,0,0,0-14,16.92c-.46.68-.91,1.37-1.35,2.06Zm-243.68-.65v43.63H307c1.61,0,3.22-.1,4.82-.26a11.82,11.82,0,0,0,4.42-1.34,9.69,9.69,0,0,0,3.36-3.07,10,10,0,0,0,1.29-5.49V891.06a19.94,19.94,0,0,0-.51-4.21,18.15,18.15,0,0,0-1.5-4.34,9.57,9.57,0,0,0-2.35-3,3.92,3.92,0,0,0-2.63-1ZM407.6,919.41a38.08,38.08,0,0,0-.36-5.12,16.91,16.91,0,0,0-1.32-4.73,8.69,8.69,0,0,0-2.47-3.31,5.88,5.88,0,0,0-3.78-1.1,7.08,7.08,0,0,0-4.28,1.13,8.21,8.21,0,0,0-2.52,3.28,17.27,17.27,0,0,0-1.33,4.73,39.79,39.79,0,0,0-.35,5.12,33.73,33.73,0,0,0,.35,4.38,18.7,18.7,0,0,0,1.34,4.85,10.21,10.21,0,0,0,2.7,3.7,6,6,0,0,0,4.09,1.34,4.89,4.89,0,0,0,3.22-1.11,9.62,9.62,0,0,0,2.59-3.37,19.94,19.94,0,0,0,1.6-4.88,26.15,26.15,0,0,0,.52-4.91Zm75.19,6.69a16.88,16.88,0,0,0,2.57,6.59c1.2,1.64,3.68,1.92,5.54,1.92a8.1,8.1,0,0,0,5.27-1.86c1.75-1.4,2.1-4,2.1-6.07V913.26c0-2.31-.47-4.73-2.21-6.36a8.89,8.89,0,0,0-6.28-2.13,4.7,4.7,0,0,0-3.37,1.18,9.73,9.73,0,0,0-2.36,3.69,19.8,19.8,0,0,0-1.18,5.21c-.17,1.89-.27,3.78-.27,5.68,0,1.07,0,2.15.09,3.22C482.74,924.53,482.78,925.32,482.79,926.1Z" transform="translate(-220.03 -702.3)"/><path class="b" d="M352.83,912.7q0,6.33-.28,14.08a147.57,147.57,0,0,1-1.4,15.57,101.27,101.27,0,0,1-3.45,15.39,46.6,46.6,0,0,1-6.43,13.33,32,32,0,0,1-10.35,9.33,30.43,30.43,0,0,1-15.2,3.54q-3.18,0-8.58-.19t-10.45-.18q-6.53,0-12,.18c-3.66.13-7.24.19-10.72.19a9.74,9.74,0,0,1-6.06-1.77,11.44,11.44,0,0,1-3.54-4.48,22,22,0,0,1-1.68-6,43.06,43.06,0,0,1-.47-6.06V937.31a7.88,7.88,0,0,1,2.43-6.24,42.9,42.9,0,0,1,5.31-4,51.93,51.93,0,0,0,5.32-3.92,7.41,7.41,0,0,0,2.42-6V900q0-10.46-4.85-17.07t-15.1-6.62a14,14,0,0,0-7.56,2.15,11,11,0,0,0-4.75,6.24q3.17,0,7.08.38a23.16,23.16,0,0,1,7.56,2,15.09,15.09,0,0,1,6.06,5.13c1.62,2.3,2.42,5.44,2.42,9.41q0,9.15-6,14.46a21.64,21.64,0,0,1-14.92,5.31,23.51,23.51,0,0,1-11.47-2.61,22.66,22.66,0,0,1-7.84-7.08,32.14,32.14,0,0,1-4.57-10.45,51.54,51.54,0,0,1-1.49-12.49,48.63,48.63,0,0,1,2.8-16.42A44.51,44.51,0,0,1,233,858.52a37.61,37.61,0,0,1,12.4-9.6,36.46,36.46,0,0,1,16.22-3.55c2.37,0,4.51,0,6.44.1s3.79.09,5.59.09h12l7.09-.37q3.17-.2,7.18-.19h8.11q14.35,0,23.13,5.5a37.71,37.71,0,0,1,13.61,14.83,64.1,64.1,0,0,1,6.43,21.54,200.16,200.16,0,0,1,1.59,25.83ZM323,891.06a22.76,22.76,0,0,0-.56-4.66,20.14,20.14,0,0,0-1.68-4.85,11.57,11.57,0,0,0-2.89-3.73,6.08,6.08,0,0,0-4-1.49H303.59v47.93H307a50.23,50.23,0,0,0,5-.28,13.9,13.9,0,0,0,5.22-1.58,11.84,11.84,0,0,0,4.1-3.73A11.68,11.68,0,0,0,323,912Z" transform="translate(-220.03 -702.3)"/><path class="b" d="M441.82,931.72a132.91,132.91,0,0,1-1.49,19.77,49.74,49.74,0,0,1-6.06,17.72A35.73,35.73,0,0,1,421.4,982q-8.29,4.93-21.73,4.94-22.56,0-32.91-13.52t-10.17-41.31A143.05,143.05,0,0,1,359,906.26a53.54,53.54,0,0,1,7.36-19.11,33.19,33.19,0,0,1,13.24-11.84q8.11-4,20.05-4t20,4.29a34.18,34.18,0,0,1,13,12.12,54.7,54.7,0,0,1,7.08,19,133.23,133.23,0,0,1,2.15,25Zm-32.08-12.31a40.78,40.78,0,0,0-.37-5.41,19.58,19.58,0,0,0-1.49-5.31,10.76,10.76,0,0,0-3.08-4.1,7.9,7.9,0,0,0-5.13-1.59,8.89,8.89,0,0,0-5.59,1.59,10.29,10.29,0,0,0-3.17,4.1,19.24,19.24,0,0,0-1.5,5.31,42.54,42.54,0,0,0-.37,5.41,37.94,37.94,0,0,0,.37,4.66,20.44,20.44,0,0,0,1.5,5.41,12.25,12.25,0,0,0,3.26,4.48,8.09,8.09,0,0,0,5.5,1.86,7.09,7.09,0,0,0,4.57-1.58,11.73,11.73,0,0,0,3.17-4.11,21.79,21.79,0,0,0,1.77-5.4A27.61,27.61,0,0,0,409.74,919.41Z" transform="translate(-220.03 -702.3)"/><path class="b" d="M592.91,820.76a19.53,19.53,0,0,1-4.38,11.93,103.48,103.48,0,0,1-11,12.12q-6.63,6.35-14.27,13.8A110.8,110.8,0,0,0,549,875.87a96.11,96.11,0,0,0-11,22.37q-4.38,12.6-4.38,29.19v54.46a121.77,121.77,0,0,1-3.36,28.16,79.47,79.47,0,0,1-10.91,25.64,59.49,59.49,0,0,1-19.68,18.65q-12.12,7.19-29.65,7.18a55.64,55.64,0,0,1-14.92-2,36.27,36.27,0,0,1-12.4-6,29.6,29.6,0,0,1-8.48-10.07,30.27,30.27,0,0,1-3.17-14.26q0-10.26,5-16.32t14.36-7.55a64.18,64.18,0,0,1,10.16-.75q5.51,0,11-.28a56,56,0,0,0,10.72-1.59,23.46,23.46,0,0,0,9.23-4.56,22.65,22.65,0,0,0,6.44-9.14q2.42-5.88,2.42-15.39c-2.49.75-4.72,1.52-6.71,2.33s-3.89,1.49-5.69,2-3.61,1-5.41,1.4a28.47,28.47,0,0,1-5.87.56q-10.26,0-16.6-5.41a37.09,37.09,0,0,1-9.89-13.42,62.89,62.89,0,0,1-4.75-17.44,136.88,136.88,0,0,1-1.21-17.44,102.52,102.52,0,0,1,1.86-18.74,68.45,68.45,0,0,1,6.16-18.46A41.54,41.54,0,0,1,463.67,875q7.09-5.6,17.35-5.6a27.62,27.62,0,0,1,10.35,2.05,121.51,121.51,0,0,1,12,5.78,88.7,88.7,0,0,1,1.87-17.71,91.17,91.17,0,0,1,5.69-18,95.81,95.81,0,0,1,9.42-16.88,67.63,67.63,0,0,1,13.14-14.08,61.66,61.66,0,0,1,17-9.6,58.15,58.15,0,0,1,20.61-3.55,26.3,26.3,0,0,1,7.83,1.22,18.13,18.13,0,0,1,7,4,21.06,21.06,0,0,1,5,7.18,26.65,26.65,0,0,1,2,10.91Zm-92.5,92.5c0-3.48-1-6.13-2.89-7.93a10.89,10.89,0,0,0-7.74-2.7,6.77,6.77,0,0,0-4.85,1.77,11.85,11.85,0,0,0-2.89,4.47,21.73,21.73,0,0,0-1.3,5.79q-.28,3.08-.28,5.87,0,1.86.09,3.36c.06,1,.09,1.8.09,2.42a18.91,18.91,0,0,0,3,7.65c1.36,1.86,3.79,2.8,7.27,2.8a10.23,10.23,0,0,0,6.62-2.34q2.89-2.32,2.89-7.74Z" transform="translate(-220.03 -702.3)"/><path class="b" d="M618.49,949.81q0,10.07-3.26,17.16a31.84,31.84,0,0,1-8.76,11.56A34,34,0,0,1,593.78,985a56.57,56.57,0,0,1-15,2,53,53,0,0,1-17.81-2.7,35.5,35.5,0,0,1-12.59-7.46,30.19,30.19,0,0,1-7.55-11.47,41.64,41.64,0,0,1-2.52-14.73A45.42,45.42,0,0,1,539,943a22.13,22.13,0,0,1,2.34-6.9,13.78,13.78,0,0,1,4.66-5,13.27,13.27,0,0,1,7.46-2,12.07,12.07,0,0,1,6.34,1.58,34.53,34.53,0,0,1,4.85,3.55,47.92,47.92,0,0,0,4.57,3.54,9.18,9.18,0,0,0,5.31,1.59,16,16,0,0,0,4.94-.75c1.56-.5,2.33-1.86,2.33-4.1a3.6,3.6,0,0,0-.93-2.52,9.94,9.94,0,0,0-2.14-1.77,15.86,15.86,0,0,0-2.71-1.31,25.83,25.83,0,0,1-2.61-1.12q-5-2.24-10.35-4.1a39.68,39.68,0,0,1-9.6-4.85,23.77,23.77,0,0,1-7-7.64q-2.7-4.66-2.7-12.5a24.67,24.67,0,0,1,3-12.59,25.3,25.3,0,0,1,7.84-8.39,32.15,32.15,0,0,1,11.09-4.66,58.54,58.54,0,0,1,12.78-1.4,74.64,74.64,0,0,1,14.08,1.3,35.55,35.55,0,0,1,12.21,4.67,25.41,25.41,0,0,1,8.68,9q3.25,5.6,3.26,14.17a8.48,8.48,0,0,1-3.54,6.9,11.64,11.64,0,0,1-7.28,2.8,12.78,12.78,0,0,1-6.71-1.68,38.83,38.83,0,0,1-5.13-3.64c-1.55-1.3-3.05-2.48-4.48-3.54a7.78,7.78,0,0,0-4.75-1.58,5.35,5.35,0,0,0-3.64,1.21,4.8,4.8,0,0,0-1.4,3.82,3.79,3.79,0,0,0,2.15,3.45,15.41,15.41,0,0,0,3.63,1.59q17,5,25,14.82T618.49,949.81Z" transform="translate(-220.03 -702.3)"/><path class="c" d="M243.36,884.07a13.21,13.21,0,0,1,5.67-7.42,16.26,16.26,0,0,1,8.69-2.46c6.65,0,12.79,2,16.83,7.49,3.91,5.34,5.27,11.82,5.27,18.34v17.15a9.54,9.54,0,0,1-3.19,7.61,53.59,53.59,0,0,1-5.53,4.08,41.85,41.85,0,0,0-5.06,3.81,5.93,5.93,0,0,0-1.7,4.65v28.34a41,41,0,0,0,.44,5.76,20.13,20.13,0,0,0,1.52,5.39,9.11,9.11,0,0,0,2.88,3.65,7.79,7.79,0,0,0,4.76,1.33q5.32,0,10.65-.18c4-.14,8.07-.19,12.1-.19,3.51,0,7,.07,10.52.19,2.83.1,5.68.18,8.51.18a28.56,28.56,0,0,0,14.14-3.26,29.61,29.61,0,0,0,9.66-8.7,44.83,44.83,0,0,0,6.13-12.73A98,98,0,0,0,349,942.05a146.08,146.08,0,0,0,1.37-15.35c.17-4.66.28-9.33.28-14a198.52,198.52,0,0,0-1.56-25.56,62.49,62.49,0,0,0-6.21-20.82,35.58,35.58,0,0,0-12.85-14c-6.44-4-14.53-5.17-22-5.17H300c-2.36,0-4.71.05-7.07.18l-7.08.37H273.66c-1.89,0-3.77,0-5.66-.1-2.12-.07-4.25-.09-6.37-.09a34.49,34.49,0,0,0-15.28,3.33,35.48,35.48,0,0,0-11.71,9.06,42.31,42.31,0,0,0-7.54,13.23,46.53,46.53,0,0,0-2.67,15.69,49.31,49.31,0,0,0,1.43,12,29.69,29.69,0,0,0,4.25,9.75,20.45,20.45,0,0,0,7.1,6.42,21.55,21.55,0,0,0,10.44,2.35,19.53,19.53,0,0,0,13.49-4.78c3.81-3.39,5.25-7.84,5.25-12.85,0-2.75-.41-5.87-2-8.18a12.77,12.77,0,0,0-5.2-4.41,21,21,0,0,0-6.86-1.87c-2.28-.21-4.59-.36-6.88-.36h-2.94l.89-2.8Zm81.78,7V912a12.87,12.87,0,0,1-6.91,12.33,16,16,0,0,1-6,1.84c-1.74.17-3.5.29-5.25.29h-5.5V874.19h12.4a8.18,8.18,0,0,1,5.39,2,13.66,13.66,0,0,1,3.43,4.41,22.56,22.56,0,0,1,1.86,5.36,24.44,24.44,0,0,1,.61,5.11Zm114.53,40.66a131.59,131.59,0,0,0-2.1-24.59,52.89,52.89,0,0,0-6.8-18.28,32,32,0,0,0-12.15-11.37c-5.75-3.08-12.51-4-18.95-4s-13.25.9-19.1,3.79a31.18,31.18,0,0,0-12.39,11.09,51.77,51.77,0,0,0-7.06,18.36,137.31,137.31,0,0,0-2.38,25.43c-.12,13.06,1.5,29.25,9.72,40,7.52,9.82,19.34,12.68,31.21,12.68,7,0,14.55-1,20.63-4.64a33.62,33.62,0,0,0,12.11-12,47.41,47.41,0,0,0,5.8-17,130.58,130.58,0,0,0,1.46-19.45Zm-27.78-12.31a30.51,30.51,0,0,1-.6,5.72,24.75,24.75,0,0,1-1.94,5.94,14.11,14.11,0,0,1-3.76,4.84,9.22,9.22,0,0,1-5.92,2.06,10.26,10.26,0,0,1-6.91-2.39,14.63,14.63,0,0,1-3.83-5.25,22.9,22.9,0,0,1-1.64-6,37.38,37.38,0,0,1-.39-5,43.4,43.4,0,0,1,.39-5.69,21.26,21.26,0,0,1,1.66-5.9,12.5,12.5,0,0,1,3.82-4.93,11.06,11.06,0,0,1,6.9-2,10.05,10.05,0,0,1,6.48,2.07,12.93,12.93,0,0,1,3.69,4.9,21.26,21.26,0,0,1,1.66,5.9,43.4,43.4,0,0,1,.39,5.69Zm90.67,54.27V970.8l-2.76.83c-2.34.7-4.65,1.48-6.91,2.39-1.81.74-3.65,1.41-5.52,2a52.24,52.24,0,0,1-5.2,1.35,26.89,26.89,0,0,1-5.44.52c-5.53,0-10.92-1.24-15.21-4.9a34.92,34.92,0,0,1-9.31-12.66,60.81,60.81,0,0,1-4.59-16.84,135.22,135.22,0,0,1-1.2-17.17A100.06,100.06,0,0,1,448.25,908a66.91,66.91,0,0,1,6-17.89A39.54,39.54,0,0,1,465,876.71c4.65-3.67,10.14-5.13,16-5.13a25.68,25.68,0,0,1,9.55,1.89,117.51,117.51,0,0,1,11.81,5.68l3.16,1.71v-3.6A86.51,86.51,0,0,1,507.36,860a90.27,90.27,0,0,1,5.56-17.58,93.22,93.22,0,0,1,9.21-16.5,65.1,65.1,0,0,1,12.73-13.63A59.36,59.36,0,0,1,551.24,803a56,56,0,0,1,19.85-3.41,24.11,24.11,0,0,1,7.2,1.12,16.37,16.37,0,0,1,6.19,3.54,19.39,19.39,0,0,1,4.52,6.47,25.11,25.11,0,0,1,1.77,10,17.5,17.5,0,0,1-3.95,10.63A101,101,0,0,1,576,843.26q-7.17,6.87-14.28,13.82a112.37,112.37,0,0,0-14.54,17.58A98.93,98.93,0,0,0,536,897.54c-3.32,9.54-4.5,19.83-4.5,29.89v54.46a119.84,119.84,0,0,1-3.3,27.66,77.35,77.35,0,0,1-10.61,25,57.37,57.37,0,0,1-19,18c-8.63,5.12-18.63,6.88-28.56,6.88a53.37,53.37,0,0,1-14.34-1.88,34.36,34.36,0,0,1-11.69-5.61,27.44,27.44,0,0,1-7.87-9.35,28.48,28.48,0,0,1-2.93-13.27c0-5.32,1.06-10.76,4.54-15,3.34-4,8-6,13-6.81a63.39,63.39,0,0,1,9.83-.71c3.7,0,7.41-.1,11.11-.29a58.18,58.18,0,0,0,11.13-1.64,25.75,25.75,0,0,0,10.07-5,24.87,24.87,0,0,0,7.06-10c2-5,2.59-10.88,2.59-16.21Zm0-60.42c0-3.55-.91-7-3.57-9.5a13.06,13.06,0,0,0-9.21-3.28,8.94,8.94,0,0,0-6.33,2.36,14,14,0,0,0-3.41,5.27,23.89,23.89,0,0,0-1.44,6.35c-.18,2-.29,4-.29,6.07,0,1.16,0,2.33.1,3.49,0,.76.09,1.53.09,2.29v.21l0,.2a21.12,21.12,0,0,0,3.36,8.51c2.1,2.87,5.62,3.67,9,3.67a12.38,12.38,0,0,0,8-2.81c2.85-2.3,3.69-5.9,3.69-9.41V913.26Zm82.36-1.1a17.81,17.81,0,0,1-4.13-1.79,5.94,5.94,0,0,1-3.23-5.32,6.89,6.89,0,0,1,2.14-5.44,7.5,7.5,0,0,1,5-1.74,9.94,9.94,0,0,1,6,2c1.57,1.15,3.09,2.37,4.58,3.62a37.33,37.33,0,0,0,4.85,3.44,10.78,10.78,0,0,0,5.61,1.37,9.64,9.64,0,0,0,6-2.33,6.38,6.38,0,0,0,2.73-5.22c0-4.46-.7-9.18-3-13.09a23.24,23.24,0,0,0-8-8.21,33.61,33.61,0,0,0-11.48-4.38,73,73,0,0,0-13.68-1.27,56.69,56.69,0,0,0-12.31,1.35,30.27,30.27,0,0,0-10.36,4.35,23.17,23.17,0,0,0-7.18,7.69,22.8,22.8,0,0,0-2.69,11.51c0,3.77.48,8.1,2.41,11.42a21.62,21.62,0,0,0,6.36,7,38.06,38.06,0,0,0,9.09,4.59q5.34,1.86,10.52,4.16l0,0,0,0a23.27,23.27,0,0,0,2.41,1,17.4,17.4,0,0,1,3.07,1.49,12.06,12.06,0,0,1,2.61,2.16,5.71,5.71,0,0,1,1.49,4c0,2.75-1,5.25-3.82,6.14a18.28,18.28,0,0,1-5.6.85,11.45,11.45,0,0,1-6.52-2,49.09,49.09,0,0,1-4.77-3.71,33.51,33.51,0,0,0-4.55-3.32,9.93,9.93,0,0,0-5.23-1.28,11.3,11.3,0,0,0-6.28,1.61,11.76,11.76,0,0,0-4,4.27,20,20,0,0,0-2.1,6.23,43.48,43.48,0,0,0-.62,7.2,39.64,39.64,0,0,0,2.38,14,28,28,0,0,0,7,10.66,33.43,33.43,0,0,0,11.84,7,51,51,0,0,0,17.08,2.58,54.6,54.6,0,0,0,14.45-1.89,31.87,31.87,0,0,0,11.89-6,29.61,29.61,0,0,0,8.17-10.8,39,39,0,0,0,3.07-16.26c0-8.59-2-16.8-7.53-23.54C602.88,919,593.72,914.77,584.92,912.16Z" transform="translate(-220.03 -702.3)"/></svg>